# xmcd
#
# Track frame offsets: 
#        150
#        12803
#        25480
#        39323
#        52543
#        67353
#        82530
#        95735
#        109538
#        123110
#        137255
#        151925
#        167623
#        182698
#        195768
#        212023
#        227493
#        241525
#        252673
#        265710
#        279343
#        292980
#
# Disc length: 4068 seconds
#
# Revision: 0
# Processed by: cddbd v1.5.2PL0 Copyright (c) Steve Scherf et al.
# Submitted via: ExactAudioCopy v0.99pb3
#
DISCID=0b0fe216
DTITLE=James P. Johnson  - James P. Johnson 1928 - 1938
DYEAR=1992
DGENRE=Blues
TTITLE0=Daylight Savin' Blues
TTITLE1=Georgia's Always On My Mind
TTITLE2=Riffs
TTITLE3=Feelin' Blue
TTITLE4=Put Your Mind Right On It
TTITLE5=Fare Thee Honey Blues
TTITLE6=You Don't Understand
TTITLE7=You've Got To Be Modernistic
TTITLE8=Crying For The Carolines
TTITLE9=What Is This Thing Called Love?
TTITLE10=You've Got To Be Modernistic
TTITLE11=Jingles
TTITLE12=How Could I Be Blue?
TTITLE13=I've Found A New Baby
TTITLE14=Go Harlem
TTITLE15=A Porter's Love Song (To A Chambermaid)
TTITLE16=Just A Crazy Song (HI-HI-HI)
TTITLE17=Baby, Won't You Please Come Home?
TTITLE18=There'll Be Some Changes Made (trumpet version)
TTITLE19=There'll Be Some Changes Made (piano version)
TTITLE20=Horn Of Plenty Blues (Zutty's Hootie Blues)
TTITLE21=Dinah
EXTD=
EXTT0=
EXTT1=
EXTT2=
EXTT3=
EXTT4=
EXTT5=
EXTT6=
EXTT7=
EXTT8=
EXTT9=
EXTT10=
EXTT11=
EXTT12=
EXTT13=
EXTT14=
EXTT15=
EXTT16=
EXTT17=
EXTT18=
EXTT19=
EXTT20=
EXTT21=
PLAYORDER=
